<?xml version="1.0" standalone="no"?><!DOCTYPE svg PUBLIC "-//W3C//DTD SVG 1.1//EN" "http://www.w3.org/Graphics/SVG/1.1/DTD/svg11.dtd"><svg class="icon" style="width: 5em; height: 5em;vertical-align: middle;fill: currentColor;overflow: hidden;" viewBox="0 0 1024 1024" version="1.1" xmlns="http://www.w3.org/2000/svg"><path d="M961.024 463.36l-374.784-374.784c-20.48-20.48-47.616-31.744-76.288-31.744s-55.808 11.264-76.288 31.744L62.976 459.776c-9.216 9.216-9.216 23.552 0 32.768 9.216 9.216 23.552 9.216 32.768 0l37.888-37.888V824.32c0 37.888 14.848 73.728 40.96 100.864 26.624 27.136 62.464 41.984 100.352 41.984h469.504c79.36 0 143.36-64 143.36-142.848V456.704l39.424 39.424c4.608 4.608 10.24 6.656 16.384 6.656 6.144 0 11.776-2.56 16.384-6.656 10.24-8.704 10.24-23.552 1.024-32.768z m-339.968 456.704H402.944v-250.88c0-9.216 7.68-16.896 16.896-16.896h184.32c9.216 0 16.896 7.68 16.896 16.896v250.88z m221.184-96.256c0 53.248-43.52 96.256-96.768 96.256h-77.312v-250.88c0-34.816-28.672-63.488-63.488-63.488H419.328c-34.816 0-63.488 28.672-63.488 63.488v250.88H275.456c-52.224 0-95.232-43.008-95.232-96.256V408.576H179.2l287.232-287.232c11.776-11.776 27.136-17.92 43.52-17.92s31.744 6.144 43.52 17.92l288.768 288.768v413.696z" /></svg>