<?xml version="1.0" standalone="no"?>
<!DOCTYPE svg PUBLIC "-//W3C//DTD SVG 20010904//EN"
 "http://www.w3.org/TR/2001/REC-SVG-20010904/DTD/svg10.dtd">
<svg version="1.0" xmlns="http://www.w3.org/2000/svg"
 width="1280.000000pt" height="1280.000000pt" viewBox="0 0 1280.000000 1280.000000"
 preserveAspectRatio="xMidYMid meet">
<metadata>
Created by potrace 1.15, written by Peter Selinger 2001-2017
</metadata>
<g transform="translate(0.000000,1280.000000) scale(0.100000,-0.100000)"
fill="#000000" stroke="none">
<path d="M10370 10099 c-25 -10 -119 -47 -210 -83 -629 -244 -1497 -637 -2290
-1037 -2220 -1118 -3802 -2158 -5350 -3518 -573 -503 -1050 -996 -1050 -1086
0 -23 154 -233 298 -405 129 -155 463 -488 587 -586 361 -285 890 -544 1449
-709 1069 -314 2150 -294 3221 60 652 216 1334 571 1891 985 781 581 1462
1429 1762 2193 159 403 257 805 309 1258 26 225 26 878 0 1104 -69 603 -246
1253 -453 1666 -46 92 -102 180 -113 178 -3 -1 -26 -9 -51 -20z m29 -126 c12
-29 9 -41 -23 -128 -20 -53 -52 -155 -71 -227 -19 -72 -36 -132 -38 -135 -3
-2 -11 24 -20 57 -15 60 -15 61 18 158 27 82 43 146 71 289 4 21 33 36 45 24
3 -3 11 -20 18 -38z m-144 -98 c-19 -53 -38 -109 -42 -125 -8 -41 -17 -38 -30
11 -9 34 -7 51 12 112 19 61 27 75 56 89 18 10 35 16 37 14 2 -2 -13 -48 -33
-101z m-95 31 c0 -8 -4 -18 -10 -21 -5 -3 -10 3 -10 14 0 12 5 21 10 21 6 0
10 -6 10 -14z m305 -90 l19 -55 -47 -148 c-26 -81 -61 -199 -78 -261 -18 -61
-34 -110 -36 -108 -7 7 -32 119 -33 144 0 13 22 85 49 160 27 75 60 180 73
233 12 54 26 95 29 93 3 -1 14 -28 24 -58z m-423 -67 c38 -131 103 -409 132
-569 110 -602 114 -1273 10 -1835 -69 -376 -198 -775 -349 -1075 -258 -513
-754 -1130 -1225 -1521 -769 -640 -1774 -1105 -2704 -1254 -309 -49 -793 -69
-1104 -46 -430 33 -902 133 -1317 279 -432 152 -873 379 -1200 617 -122 89
-344 263 -410 321 l-30 27 65 60 c36 33 171 153 300 266 1736 1522 3126 2466
5315 3610 400 210 1789 901 2130 1060 154 72 294 138 310 145 17 8 34 13 40
12 5 -1 22 -45 37 -97z m519 -207 c25 -81 52 -174 59 -207 7 -33 16 -69 21
-80 46 -107 149 -678 181 -1000 20 -202 17 -781 -5 -985 -64 -585 -208 -1103
-432 -1553 -280 -560 -788 -1189 -1321 -1636 -729 -611 -1728 -1110 -2624
-1310 -1021 -228 -2039 -149 -3020 236 -308 120 -677 317 -915 486 -92 66
-265 197 -291 221 -7 6 -35 29 -63 51 -29 22 -54 49 -56 60 -2 11 -9 101 -15
200 -5 99 -13 204 -17 234 -7 62 -8 62 78 -12 157 -134 450 -317 734 -456 570
-280 1194 -455 1865 -523 187 -19 727 -16 920 6 767 83 1511 332 2230 744 454
260 814 534 1166 886 344 346 618 701 845 1096 437 762 616 1774 493 2785
l-16 130 55 155 c59 167 120 396 115 431 -2 12 -41 -96 -88 -239 -47 -144 -87
-261 -90 -262 -3 0 -13 39 -21 88 l-15 87 58 160 c31 88 69 206 85 262 15 56
30 99 32 97 3 -2 26 -71 52 -152z m-8741 -5062 c-5 -30 -13 -131 -16 -223 l-7
-169 -43 44 -43 43 15 75 c7 41 17 139 20 218 l7 144 38 -39 39 -38 -10 -55z
m-100 88 c0 -2 -7 -52 -15 -113 -8 -60 -15 -144 -15 -185 l-1 -75 -24 27 c-23
26 -23 29 -10 85 18 83 37 224 31 231 -7 6 13 32 25 32 5 0 9 -1 9 -2z m193
-351 c1 -130 0 -237 -3 -237 -3 0 -23 18 -44 39 l-38 39 11 145 c6 80 11 182
11 228 l0 84 30 -31 31 -30 2 -237z m-283 253 c0 -11 -4 -20 -10 -20 -5 0 -10
9 -10 20 0 11 5 20 10 20 6 0 10 -9 10 -20z m-66 -67 c-9 -49 -10 -50 -35 -27
l-21 19 29 22 c15 13 29 23 31 23 2 0 0 -17 -4 -37z m50 -47 c-4 -37 -11 -63
-15 -59 -5 5 -3 37 3 71 6 34 13 60 15 58 2 -2 1 -34 -3 -70z m407 -2 c10 -12
14 -55 16 -159 2 -79 9 -190 17 -247 8 -56 13 -104 12 -106 -2 -2 -27 19 -55
45 l-51 48 7 227 c6 208 7 226 23 218 9 -5 23 -16 31 -26z"/>
<path d="M8890 8688 c0 -3 -22 -11 -49 -18 -34 -8 -67 -27 -107 -62 -33 -27
-83 -63 -111 -80 -89 -50 -79 -54 147 -62 135 -5 160 -3 190 12 45 23 71 61
77 113 7 66 -20 96 -92 101 -30 1 -55 0 -55 -4z"/>
<path d="M9285 8200 c-82 -21 -165 -84 -165 -125 0 -30 14 -40 77 -55 56 -13
125 -7 202 16 177 53 68 211 -114 164z"/>
<path d="M7560 8132 c-67 -9 -80 -16 -80 -48 0 -30 46 -64 171 -129 50 -26
107 -58 127 -71 20 -14 45 -24 57 -22 27 4 55 62 55 114 0 116 -135 179 -330
156z"/>
<path d="M8226 7962 c-16 -4 -35 -16 -42 -27 -12 -18 -11 -24 2 -43 8 -12 22
-22 31 -22 8 0 24 -11 35 -25 30 -39 179 -108 234 -109 62 -1 88 29 81 92 -9
85 -82 129 -224 137 -48 2 -101 1 -117 -3z"/>
<path d="M7114 7555 c-16 -24 -15 -28 10 -80 38 -76 110 -172 149 -195 48 -30
83 -26 123 14 40 40 46 92 15 143 -22 35 -128 99 -182 109 -19 4 -46 13 -61
20 -35 18 -35 18 -54 -11z"/>
<path d="M7738 7525 c-16 -9 -28 -21 -28 -27 0 -41 149 -182 242 -229 52 -27
98 -22 117 12 36 64 -50 186 -159 227 -81 29 -139 35 -172 17z"/>
<path d="M8852 7363 l-43 -4 23 -32 c12 -18 25 -33 29 -35 3 -1 37 -23 75 -48
172 -115 269 -140 325 -85 77 77 -6 174 -171 201 -63 10 -149 11 -238 3z"/>
<path d="M6565 7180 c-4 -12 -1 -28 6 -36 6 -8 22 -42 34 -77 40 -116 98 -177
170 -177 33 0 81 24 89 45 19 49 0 76 -119 172 -117 94 -167 114 -180 73z"/>
<path d="M7261 6926 c-8 -9 -20 -16 -27 -16 -8 0 -14 -2 -14 -5 0 -32 187
-303 224 -326 73 -44 136 -8 136 78 0 66 -24 106 -103 174 -96 83 -192 125
-216 95z"/>
<path d="M6019 6836 c-24 -52 34 -271 86 -323 72 -72 181 -19 179 86 -2 51
-24 90 -96 166 -66 71 -85 85 -129 92 -23 3 -31 -1 -40 -21z"/>
<path d="M8473 6720 c-25 -10 -31 -44 -10 -57 7 -4 23 -25 36 -45 46 -77 189
-168 268 -171 38 -2 49 2 69 26 55 64 15 136 -113 201 -94 47 -199 66 -250 46z"/>
<path d="M7977 6393 c-26 -7 -16 -41 35 -115 78 -116 176 -188 234 -174 59 15
68 96 17 156 -31 37 -235 144 -263 139 -3 -1 -13 -3 -23 -6z"/>
<path d="M5032 6188 c-25 -41 -52 -171 -52 -248 0 -101 54 -139 121 -83 67 57
76 141 28 261 -45 114 -62 127 -97 70z"/>
<path d="M6630 6214 c0 -3 15 -38 34 -78 19 -39 41 -97 49 -128 17 -65 35 -93
74 -119 42 -28 77 -24 107 12 53 63 22 164 -71 232 -77 55 -138 87 -166 87
-15 0 -27 -3 -27 -6z"/>
<path d="M6012 6088 c-19 -19 -14 -81 14 -170 47 -148 88 -210 140 -210 64 0
93 98 59 201 -20 60 -103 157 -152 178 -40 16 -46 16 -61 1z"/>
<path d="M7566 5879 c-49 -12 -66 -25 -66 -53 0 -53 154 -150 258 -163 45 -5
53 -3 76 20 31 31 32 51 6 94 -26 44 -88 83 -157 99 -65 15 -64 15 -117 3z"/>
<path d="M4214 5783 c-59 -64 -134 -233 -134 -303 0 -29 6 -43 22 -54 31 -22
48 -20 99 12 68 44 102 114 107 223 7 134 -34 187 -94 122z"/>
<path d="M5513 5617 c-4 -8 -16 -16 -25 -20 -23 -8 -32 -80 -24 -186 8 -115
22 -159 61 -198 68 -68 135 -30 135 76 -1 138 -75 341 -126 341 -7 0 -17 -6
-21 -13z"/>
<path d="M4746 5444 c-9 -8 -16 -25 -16 -36 0 -12 -7 -29 -15 -38 -20 -22 -55
-162 -55 -220 0 -64 28 -100 77 -100 75 0 126 66 125 164 0 67 -26 188 -48
224 -17 26 -46 29 -68 6z"/>
<path d="M6870 5359 c0 -43 122 -278 170 -328 35 -36 45 -41 85 -41 96 0 125
83 63 176 -43 64 -145 145 -236 189 -40 19 -75 35 -77 35 -3 0 -5 -14 -5 -31z"/>
<path d="M6216 5021 c-9 -14 12 -162 29 -211 54 -153 156 -230 220 -165 55 55
21 170 -84 287 -65 71 -148 117 -165 89z"/>
<path d="M3593 4861 c-55 -63 -78 -103 -103 -176 -51 -149 6 -254 108 -201 80
41 130 277 82 384 -10 23 -25 42 -32 42 -7 0 -32 -22 -55 -49z"/>
<path d="M5797 4705 c-8 -8 -18 -36 -22 -62 -6 -48 8 -203 21 -226 38 -67 97
-76 150 -23 29 29 34 41 34 83 0 61 -35 137 -91 197 -43 48 -68 56 -92 31z"/>
<path d="M4339 4677 c-32 -41 -100 -244 -106 -319 -7 -70 9 -113 48 -133 37
-20 58 -19 96 5 25 15 36 32 49 77 15 50 16 71 6 158 -10 88 -43 217 -61 237
-4 4 -18 -7 -32 -25z"/>
<path d="M5110 4554 c-14 -35 -12 -70 5 -139 20 -75 71 -162 108 -181 34 -18
74 -3 95 36 18 34 9 117 -18 171 -55 110 -166 176 -190 113z"/>
<path d="M10614 9223 c-6 -16 -47 -120 -91 -233 -90 -228 -109 -288 -62 -190
65 136 182 450 167 450 -2 0 -8 -12 -14 -27z"/>
<path d="M2182 4145 c0 -16 2 -22 5 -12 2 9 2 23 0 30 -3 6 -5 -1 -5 -18z"/>
<path d="M2193 4015 c0 -27 2 -38 4 -22 2 15 2 37 0 50 -2 12 -4 0 -4 -28z"/>
<path d="M2203 3860 c0 -25 2 -35 4 -22 2 12 2 32 0 45 -2 12 -4 2 -4 -23z"/>
</g>
</svg>
