<?xml version="1.0" standalone="no"?>
<!DOCTYPE svg PUBLIC "-//W3C//DTD SVG 20010904//EN"
 "http://www.w3.org/TR/2001/REC-SVG-20010904/DTD/svg10.dtd">
<svg version="1.0" xmlns="http://www.w3.org/2000/svg"
 width="1280.000000pt" height="962.000000pt" viewBox="0 0 1280.000000 962.000000"
 preserveAspectRatio="xMidYMid meet">
<metadata>
Created by potrace 1.15, written by Peter Selinger 2001-2017
</metadata>
<g transform="translate(0.000000,962.000000) scale(0.100000,-0.100000)"
fill="#000000" stroke="none">
<path d="M1160 9613 c-114 -12 -260 -39 -365 -69 -182 -53 -281 -105 -449
-235 -80 -62 -144 -115 -142 -116 1 -2 81 35 177 81 194 94 365 155 514 182
155 29 519 27 673 -4 250 -50 445 -145 582 -282 232 -232 290 -564 150 -866
-181 -393 -627 -579 -1136 -475 -314 64 -710 263 -878 442 -96 101 -130 176
-134 294 -3 78 0 100 22 159 52 138 166 289 342 454 l99 93 -90 -44 c-205
-102 -392 -260 -462 -393 -118 -222 -68 -444 151 -673 221 -229 573 -413 957
-497 68 -15 125 -27 126 -28 8 -5 56 -614 75 -951 17 -304 17 -1573 0 -1900
-48 -929 -86 -1423 -123 -1615 -67 -344 -168 -752 -269 -1085 -82 -272 -402
-1240 -435 -1318 -28 -68 -15 -77 36 -27 45 44 173 277 372 675 214 429 345
791 402 1110 l7 40 13 -45 c7 -25 32 -112 55 -195 129 -456 319 -956 496
-1305 82 -163 197 -365 256 -453 22 -32 38 -60 36 -61 -163 -113 -213 -179
-243 -324 -23 -108 -22 -112 28 -112 93 1 171 51 213 135 21 44 28 75 33 155
l6 100 23 -34 c18 -27 24 -53 29 -125 4 -68 9 -91 18 -87 7 2 31 10 53 16 l40
12 112 -116 c62 -64 115 -115 116 -113 2 2 -28 63 -68 136 -66 124 -72 140
-83 227 -7 52 -15 97 -18 100 -3 3 -15 0 -27 -6 -12 -6 -23 -10 -25 -8 -17 17
-221 484 -416 950 -213 510 -385 898 -511 1147 l-108 215 11 175 c6 97 9 226
5 288 -5 96 -3 127 18 225 82 378 143 800 182 1253 20 232 30 942 16 1135 -6
79 -9 146 -7 148 1 2 10 -32 20 -75 46 -209 156 -473 264 -635 132 -198 326
-354 536 -433 180 -68 418 -91 645 -61 68 9 125 18 127 19 1 2 -48 16 -110 31
-282 70 -534 171 -700 279 -86 56 -268 214 -296 257 -13 20 -6 17 39 -16 319
-233 815 -414 1215 -443 100 -7 100 -7 165 -56 140 -103 492 -248 875 -358
194 -56 264 -73 255 -64 -3 3 -106 51 -230 107 -431 196 -747 356 -779 394 -9
10 8 17 87 32 148 29 501 27 669 -4 519 -95 1087 -341 1723 -745 441 -281 972
-690 1304 -1007 89 -85 89 -81 -5 46 -172 234 -432 516 -672 731 -1035 923
-2186 1359 -3049 1154 -167 -39 -268 -96 -268 -150 0 -11 -2 -21 -5 -21 -3 0
-79 28 -168 61 -657 249 -1108 532 -1507 946 -140 146 -142 147 -135 108 4
-22 9 -48 12 -57 2 -10 0 -18 -5 -18 -6 0 -13 35 -17 78 -40 488 -134 999
-260 1416 -38 125 -39 129 -27 123 4 -3 67 -10 140 -17 228 -21 474 14 644 93
237 109 389 293 457 552 41 155 46 424 11 579 -94 420 -490 709 -1049 765 -97
10 -282 12 -361 4z"/>
<path d="M1316 9140 c-37 -11 -83 -55 -107 -102 l-19 -38 40 -20 c22 -11 40
-27 40 -35 0 -14 12 -20 34 -16 4 1 28 -14 51 -34 l44 -35 21 29 c75 106 64
209 -26 247 -37 16 -38 16 -78 4z"/>
<path d="M1768 9034 c-15 -8 -41 -34 -57 -58 l-31 -44 33 -41 c17 -22 47 -47
64 -56 32 -15 33 -15 85 21 42 28 54 43 59 70 7 43 -7 72 -50 101 -39 26 -65
28 -103 7z"/>
<path d="M2033 8531 c-132 -155 -159 -174 -281 -201 -53 -12 -169 -38 -257
-59 l-160 -38 50 -22 c28 -12 88 -34 135 -49 74 -22 103 -26 230 -26 130 -1
151 2 205 23 80 32 155 108 181 181 20 58 23 208 7 278 l-8 33 -102 -120z"/>
<path d="M9633 3319 c-84 -10 -275 -52 -493 -109 -364 -94 -571 -124 -815
-117 -232 7 -316 32 -478 143 -86 59 -125 44 -242 -96 -59 -71 -492 -643 -564
-745 -16 -21 22 10 264 221 171 149 260 241 358 367 38 48 74 87 81 87 7 0 48
-16 90 -35 108 -51 292 -110 421 -137 93 -19 141 -23 315 -23 174 0 222 3 316
22 149 31 300 80 538 174 300 120 378 132 452 67 47 -42 62 -74 128 -280 89
-279 176 -432 281 -494 43 -25 145 -45 145 -28 0 5 -21 22 -47 39 -71 44 -149
130 -183 198 -41 85 -66 195 -84 372 -8 83 -22 173 -30 200 -46 152 -185 205
-453 174z"/>
<path d="M6696 2305 c-51 -67 -93 -159 -118 -257 -17 -68 -19 -102 -16 -207 8
-214 67 -350 218 -502 118 -119 230 -181 415 -230 61 -16 119 -22 245 -25
l165 -4 -90 20 c-437 96 -662 236 -747 466 -19 52 -22 80 -22 224 -1 139 3
182 23 274 l24 109 106 -7 c58 -4 243 -18 411 -32 1024 -83 1135 -88 1625 -81
378 6 577 18 1185 71 320 28 759 52 783 43 13 -5 8 -24 -32 -124 -39 -95 -106
-294 -137 -408 -3 -11 45 63 106 165 258 427 261 473 25 502 -98 12 -116 11
-1085 -23 -324 -12 -1037 -6 -1415 11 -121 6 -413 19 -650 30 -236 11 -554 23
-706 27 l-276 6 -37 -48z"/>
<path d="M10203 1635 c-29 -8 -79 -28 -112 -45 -36 -17 -76 -30 -98 -30 -94 0
-169 -97 -202 -261 l-12 -56 -147 29 c-206 41 -267 39 -547 -15 -126 -25 -246
-47 -266 -51 -35 -6 -37 -5 -53 36 -46 120 -174 240 -295 275 -72 21 -223 13
-303 -15 -38 -14 -70 -19 -97 -15 -132 18 -277 -148 -337 -384 -41 -163 -30
-323 32 -445 14 -27 22 -53 18 -59 -8 -13 67 -81 84 -74 16 6 42 -4 42 -17 0
-7 -18 -9 -45 -6 -25 3 -45 2 -45 -3 0 -13 37 -21 87 -18 44 3 47 2 54 -26 7
-26 24 -44 40 -45 3 0 22 11 41 23 29 20 52 25 149 30 62 4 130 11 149 16 93
24 86 27 100 -38 l12 -59 66 -16 c36 -9 67 -14 69 -12 3 2 -3 28 -11 57 -24
79 -11 70 20 -15 16 -42 31 -76 35 -76 3 0 14 18 24 40 10 22 20 40 23 40 3 0
25 -12 49 -26 l44 -25 38 30 c21 17 46 31 55 31 21 0 20 21 -5 90 l-21 57 -41
-4 -42 -5 2 88 c2 66 10 107 28 158 32 86 42 198 25 294 -6 40 -10 75 -9 76 2
2 114 -19 249 -46 300 -59 375 -62 565 -24 72 14 137 26 146 26 13 0 17 -15
22 -72 9 -99 41 -208 86 -295 l38 -72 -48 -24 c-51 -25 -59 -22 -59 23 0 11
-5 42 -11 70 l-11 50 -50 -27 c-27 -16 -70 -46 -95 -67 -35 -31 -47 -36 -53
-25 -9 14 -25 8 -120 -44 -99 -53 -190 -93 -197 -87 -4 5 -35 -21 -67 -57
l-59 -64 59 -60 58 -59 28 27 28 27 27 -26 26 -26 53 56 c48 50 55 55 64 40
15 -25 32 -22 65 12 16 16 32 30 35 30 4 0 19 -23 34 -50 l28 -50 45 50 c25
27 48 50 51 50 4 0 17 -21 29 -48 12 -26 29 -56 37 -67 14 -20 15 -20 45 9
l30 29 52 -47 c29 -26 55 -43 59 -39 4 4 20 40 35 78 33 81 55 112 55 78 0
-13 17 -35 43 -57 l44 -36 57 31 c32 17 61 41 66 53 8 19 9 18 9 -7 2 -67 53
-128 109 -129 58 -2 72 10 72 58 0 40 2 44 25 44 19 0 26 6 31 27 8 42 23 73
33 73 4 0 11 -17 15 -38 5 -32 66 -144 97 -176 9 -10 19 1 90 92 40 50 42 57
51 149 10 95 11 98 53 145 108 120 133 287 71 472 -72 212 -257 409 -447 476
-83 28 -223 36 -296 15z m150 -141 c94 -22 147 -45 223 -99 78 -56 124 -111
166 -201 28 -60 33 -79 33 -149 0 -63 -5 -90 -23 -127 -64 -130 -230 -217
-413 -218 -98 0 -184 45 -281 149 -72 77 -148 203 -162 272 -6 26 -5 27 89 44
52 9 95 18 95 20 0 2 -46 11 -101 21 l-101 17 6 46 c9 63 45 114 103 142 41
20 63 24 147 24 l98 0 -42 37 -43 38 67 0 c37 0 99 -7 139 -16z m-1927 -139
c174 -49 241 -222 165 -426 -37 -98 -74 -143 -151 -183 -56 -30 -197 -76 -231
-76 -4 0 -13 16 -19 35 -23 69 -123 105 -203 71 l-37 -15 -30 40 c-106 147
-100 367 14 487 50 54 97 72 204 82 115 10 218 4 288 -15z m314 -719 c0 -2 -8
-10 -17 -17 -16 -13 -17 -12 -4 4 13 16 21 21 21 13z m-193 -121 c8 -23 1 -26
-43 -13 -37 11 -38 12 -14 19 39 11 50 10 57 -6z"/>
<path d="M12025 1095 c-22 -8 -41 -15 -42 -15 -1 0 -9 -13 -18 -30 -19 -36
-19 -112 -1 -148 8 -17 10 -35 5 -47 -29 -72 19 -165 97 -189 17 -5 26 2 48
34 15 23 37 45 50 50 24 9 37 45 51 143 7 43 6 47 -14 47 -29 0 -27 5 19 60
l40 48 -48 20 c-41 18 -125 42 -142 41 -3 0 -23 -6 -45 -14z m140 -135 c3 -5
1 -10 -4 -10 -6 0 -11 5 -11 10 0 6 2 10 4 10 3 0 8 -4 11 -10z"/>
<path d="M6300 995 c-7 -9 -10 -30 -6 -57 21 -168 30 -192 106 -287 l50 -61
-40 0 c-22 0 -69 11 -105 25 -97 36 -375 185 -375 200 0 8 -16 15 -42 18 -24
2 -73 12 -111 22 -106 28 -141 3 -118 -84 30 -114 153 -279 247 -333 30 -16
65 -44 79 -61 15 -20 28 -28 33 -22 8 13 75 109 76 112 1 1 42 -14 91 -34 75
-31 105 -37 180 -41 82 -3 93 -2 125 20 19 13 42 37 51 55 l15 31 25 -19 c58
-47 221 -161 224 -157 7 7 -115 263 -175 368 -134 234 -278 367 -330 305z"/>
<path d="M12373 906 l-61 -104 59 -101 c33 -56 61 -101 63 -101 7 0 116 191
116 202 0 10 -73 142 -105 191 -11 15 -20 4 -72 -87z"/>
<path d="M12617 836 c-32 -35 -57 -68 -57 -73 1 -4 27 -37 59 -72 l59 -63 35
38 c19 22 46 53 60 69 l25 31 -54 64 c-30 36 -58 66 -63 68 -4 1 -33 -26 -64
-62z"/>
<path d="M6957 850 c-38 -30 -50 -79 -44 -183 6 -108 26 -171 95 -298 l49 -91
21 68 c39 132 46 180 47 284 0 118 -12 164 -55 210 -33 36 -75 40 -113 10z
m83 -134 c0 -2 -7 -7 -16 -10 -8 -3 -12 -2 -9 4 6 10 25 14 25 6z"/>
<path d="M4385 771 c-69 -43 -97 -102 -97 -213 l0 -79 -40 -20 -39 -20 7 26
c5 21 3 24 -11 18 -15 -5 -15 -2 4 23 33 45 38 97 12 123 -52 52 -163 -1 -204
-98 l-14 -33 -11 31 c-11 31 -12 31 -81 31 -39 0 -71 -3 -71 -6 0 -3 8 -35 17
-70 16 -61 19 -64 48 -64 73 0 74 -2 74 -107 0 -52 2 -97 4 -100 6 -5 146 96
166 121 15 17 31 21 31 7 0 -5 11 -29 25 -53 l25 -45 53 8 c65 10 121 63 111
104 -5 20 5 43 44 103 74 112 78 127 45 158 -23 21 -25 27 -13 34 8 6 27 10
43 10 22 0 27 4 27 25 0 85 -83 131 -155 86z"/>
<path d="M5075 751 c-17 -10 -39 -30 -48 -45 -11 -16 -27 -26 -41 -26 -12 0
-30 -8 -39 -18 -19 -21 -23 -93 -6 -124 6 -11 8 -23 4 -26 -3 -3 -8 3 -11 14
-4 14 -25 29 -58 43 l-53 22 -57 -23 c-31 -13 -56 -26 -56 -29 0 -3 25 -16 55
-28 49 -20 59 -22 86 -10 26 10 32 10 40 -2 5 -8 9 -19 9 -26 0 -6 21 -37 47
-69 l46 -57 34 37 c18 20 35 36 38 36 8 0 77 79 103 117 13 19 31 55 39 79 38
112 -40 192 -132 135z m80 -211 c-3 -5 -16 -10 -28 -9 -21 0 -21 1 -2 9 28 12
37 12 30 0z m-128 -46 c-3 -3 -12 -4 -19 -1 -8 3 -5 6 6 6 11 1 17 -2 13 -5z"/>
<path d="M7321 756 c-47 -17 -111 -73 -127 -112 -35 -83 -3 -181 90 -282 l52
-55 33 74 c39 85 61 160 61 206 0 18 9 51 21 73 14 26 19 49 15 65 -11 42 -76
56 -145 31z m44 -134 c-7 -8 -35 7 -35 18 0 6 7 6 20 -2 10 -7 17 -14 15 -16z"/>
<path d="M5376 672 c-38 -14 -83 -40 -101 -56 -47 -45 -55 -85 -43 -218 5 -62
11 -114 13 -116 1 -1 28 7 59 18 59 23 109 59 127 93 17 31 27 144 20 228 l-6
76 -69 -25z"/>
<path d="M9024 641 c-38 -26 -83 -68 -99 -91 -25 -37 -30 -53 -30 -105 0 -52
4 -67 29 -99 32 -43 104 -98 120 -93 15 5 66 141 76 203 12 70 1 234 -15 234
-6 0 -43 -22 -81 -49z"/>
<path d="M11609 638 c-54 -39 -79 -66 -97 -101 -35 -67 -22 -108 56 -177 l57
-51 22 27 c34 43 71 125 75 164 5 65 -13 190 -27 190 -7 0 -46 -24 -86 -52z"/>
<path d="M11924 664 c-103 -69 -146 -143 -125 -214 21 -72 98 -107 164 -75 46
22 52 40 27 82 -25 43 -25 45 5 37 23 -6 25 -3 25 27 0 43 -33 162 -46 166 -6
2 -28 -8 -50 -23z"/>
<path d="M3260 653 c-95 -16 -172 -62 -195 -117 l-13 -29 -7 41 -7 42 -43 -26
-44 -25 -15 28 c-34 62 -31 62 -86 8 l-50 -49 0 32 c0 18 -3 32 -7 32 -18 0
-144 -83 -181 -119 -55 -54 -76 -96 -76 -156 0 -51 34 -135 54 -135 13 0 89
47 117 72 l21 20 17 -31 16 -31 32 16 c18 9 40 23 50 32 11 9 17 11 17 4 0
-20 12 -14 104 43 48 30 89 55 90 55 2 0 7 -25 11 -55 4 -33 11 -55 19 -55 23
0 115 65 145 104 34 43 65 131 76 216 3 30 9 63 11 73 6 18 -2 19 -56 10z"/>
<path d="M7549 630 c-43 -22 -59 -37 -73 -68 -17 -38 -17 -40 2 -78 22 -41 81
-94 105 -94 8 0 38 25 66 56 40 44 50 61 45 78 -8 27 -75 136 -83 136 -3 -1
-31 -14 -62 -30z"/>
<path d="M1283 604 c4 -22 7 -56 7 -76 0 -41 -6 -38 113 -53 l48 -6 -7 73 c-3
40 -9 76 -13 79 -3 4 -39 10 -80 14 l-74 7 6 -38z"/>
<path d="M11355 598 c-59 -30 -104 -77 -111 -115 -13 -68 42 -133 113 -133 28
0 36 6 53 39 11 22 29 42 40 46 27 9 26 59 -2 130 -26 61 -34 64 -93 33z"/>
<path d="M10977 523 c-31 -37 -57 -69 -57 -73 1 -3 27 -34 60 -70 l60 -65 40
45 c22 25 49 56 59 70 l19 26 -56 66 c-32 37 -59 67 -62 67 -3 1 -31 -29 -63
-66z"/>
<path d="M1815 570 c-51 -11 -70 -27 -100 -82 -25 -45 -30 -67 -33 -147 l-5
-94 29 7 c76 19 182 85 204 126 12 23 3 50 -17 50 -11 0 -7 7 11 21 65 51 0
138 -89 119z m8 -115 c10 -14 14 -25 8 -25 -12 0 -41 28 -41 41 0 16 14 9 33
-16z"/>
<path d="M3615 501 c-139 -40 -221 -106 -249 -202 -17 -57 -23 -284 -7 -293
14 -9 94 48 147 107 28 30 70 93 92 139 37 76 102 241 102 260 0 11 -16 9 -85
-11z"/>
</g>
</svg>
